<svg xmlns="http://www.w3.org/2000/svg" width="420" height="460" viewBox="0 0 420 460" version="1.1"><path d="M 168.750 192.572 C 167.238 193.393, 166 194.290, 166 194.567 C 166 194.844, 167.012 194.526, 168.250 193.862 C 169.488 193.197, 171.850 192.327, 173.500 191.929 C 176.212 191.274, 176.260 191.199, 174 191.142 C 172.625 191.108, 170.262 191.751, 168.750 192.572 M 179.083 191.352 C 179.313 191.545, 181.075 192.214, 183 192.838 C 186.180 193.869, 186.323 193.837, 184.559 192.486 C 183.491 191.669, 181.729 191, 180.642 191 C 179.556 191, 178.854 191.158, 179.083 191.352 M 244.750 192.572 C 243.238 193.393, 242 194.286, 242 194.558 C 242 194.829, 243.328 194.365, 244.950 193.526 C 246.573 192.687, 249.745 192, 252 192 C 254.255 192, 257.427 192.687, 259.050 193.526 C 260.672 194.365, 262 194.826, 262 194.551 C 262 194.276, 260.672 193.365, 259.050 192.526 C 257.427 191.687, 254.164 191.018, 251.800 191.040 C 249.435 191.062, 246.262 191.751, 244.750 192.572 M 189.492 197.004 C 191.138 198.927, 192.881 200.950, 193.365 201.500 C 193.849 202.050, 193.781 201.600, 193.214 200.500 C 192.647 199.400, 190.905 197.377, 189.342 196.004 L 186.500 193.507 189.492 197.004 M 157.935 204.671 C 157.376 206.140, 157.050 208.016, 157.210 208.840 C 157.369 209.663, 158 208.461, 158.611 206.168 C 159.222 203.876, 159.549 202, 159.336 202 C 159.124 202, 158.493 203.202, 157.935 204.671 M 233.624 205.539 C 233.281 206.432, 233.071 209.714, 233.157 212.832 L 233.315 218.500 233.964 211.500 C 234.321 207.650, 234.531 204.368, 234.430 204.207 C 234.329 204.046, 233.966 204.645, 233.624 205.539 M 195.683 210 C 196.011 212.475, 196.441 214.688, 196.639 214.917 C 196.838 215.146, 196.968 214.021, 196.930 212.417 C 196.891 210.813, 196.461 208.600, 195.974 207.500 C 195.383 206.165, 195.286 206.995, 195.683 210 M 270.468 212.865 C 270.494 218.877, 270.664 219.659, 271.393 217.120 C 271.925 215.270, 271.911 212.287, 271.361 209.755 C 270.497 205.782, 270.437 205.988, 270.468 212.865 M 264.076 227.878 C 261.643 230.286, 260.518 231.788, 261.576 231.214 C 262.634 230.641, 264.817 228.788, 266.427 227.096 C 268.037 225.405, 269.162 223.904, 268.927 223.760 C 268.692 223.617, 266.509 225.470, 264.076 227.878 M 162.502 226.836 C 164.151 228.671, 166.400 230.638, 167.500 231.208 C 168.600 231.778, 169.050 231.851, 168.500 231.370 C 167.950 230.888, 165.701 228.921, 163.502 226.997 L 159.504 223.500 162.502 226.836 M 237.422 226.181 C 238.366 227.655, 240.272 229.603, 241.656 230.510 C 243.041 231.418, 244.434 231.899, 244.753 231.580 C 245.072 231.261, 244.830 231, 244.215 231 C 243.600 231, 241.433 229.313, 239.401 227.250 C 236.639 224.448, 236.139 224.177, 237.422 226.181 M 247.052 233.053 C 247.848 233.557, 250.037 233.976, 251.917 233.985 C 253.796 233.993, 255.146 233.837, 254.917 233.638 C 254.688 233.438, 252.498 233.019, 250.052 232.706 C 247.174 232.338, 246.115 232.461, 247.052 233.053 M 175.269 233.693 C 176.242 233.947, 177.592 233.930, 178.269 233.656 C 178.946 233.382, 178.150 233.175, 176.500 233.195 C 174.850 233.215, 174.296 233.439, 175.269 233.693" stroke="none" fill="#ff4d0a" fill-rule="evenodd"/><path d="M 278.190 98.353 C 276.919 99.058, 275.010 100.955, 273.946 102.567 C 272.800 104.306, 272.010 107.237, 272.007 109.765 C 272.001 113.231, 272.641 114.728, 275.423 117.765 C 278.512 121.135, 279.341 121.500, 283.904 121.500 C 288.271 121.500, 289.403 121.059, 292.195 118.266 C 295.073 115.388, 295.429 114.415, 295.429 109.407 C 295.429 104.197, 295.155 103.530, 291.729 100.390 C 288.866 97.766, 287.178 97.008, 284.265 97.035 C 282.194 97.055, 279.460 97.648, 278.190 98.353 M 262.728 143.722 C 264.503 143.943, 267.653 143.946, 269.728 143.730 C 271.802 143.513, 270.350 143.333, 266.500 143.328 C 262.650 143.324, 260.952 143.501, 262.728 143.722 M 307 174.500 C 308.292 175.875, 309.574 177, 309.849 177 C 310.124 177, 309.292 175.875, 308 174.500 C 306.708 173.125, 305.426 172, 305.151 172 C 304.876 172, 305.708 173.125, 307 174.500 M 127.453 183.250 L 123.500 187.500 127.750 183.547 C 130.088 181.373, 132 179.460, 132 179.297 C 132 179.134, 131.866 179, 131.703 179 C 131.540 179, 129.627 180.912, 127.453 183.250 M 268.768 186.725 C 270.565 186.947, 273.265 186.943, 274.768 186.715 C 276.271 186.486, 274.800 186.304, 271.500 186.310 C 268.200 186.315, 266.971 186.502, 268.768 186.725 M 174.500 191.078 C 176.138 191.846, 175.921 191.956, 173.303 191.689 C 171.377 191.492, 170.349 191.755, 170.717 192.351 C 171.080 192.939, 170.632 193.073, 169.612 192.681 C 168.668 192.319, 168.142 192.421, 168.442 192.907 C 168.743 193.393, 168.293 194.057, 167.442 194.384 C 166.414 194.778, 166.120 194.562, 166.566 193.739 C 166.934 193.057, 166.090 193.850, 164.690 195.500 C 163.291 197.150, 161.438 199.287, 160.573 200.250 C 159.708 201.213, 159 202.225, 159 202.500 C 159 202.775, 159 203.702, 159 204.559 C 159 205.416, 158.615 205.880, 158.144 205.589 C 157.674 205.298, 157.484 206.284, 157.723 207.780 C 158.062 209.910, 157.926 210.175, 157.094 209 C 156.285 207.859, 156.031 208.695, 156.031 212.500 C 156.031 216.310, 156.284 217.143, 157.096 216 C 157.912 214.852, 158.016 215.164, 157.541 217.334 C 157.086 219.408, 157.244 219.967, 158.130 219.420 C 158.962 218.906, 159.140 219.192, 158.701 220.336 C 158.337 221.286, 158.550 222, 159.198 222 C 159.822 222, 160.070 222.264, 159.747 222.586 C 159.425 222.908, 160.384 224.371, 161.879 225.836 C 164.386 228.294, 164.399 228.345, 162.048 226.500 L 159.500 224.500 161.895 227.219 C 163.213 228.715, 164.659 229.711, 165.109 229.433 C 165.559 229.155, 166.833 229.833, 167.941 230.941 C 169.179 232.179, 170.605 232.705, 171.641 232.307 C 172.569 231.951, 173.072 232.074, 172.760 232.580 C 172.446 233.087, 174.169 233.500, 176.595 233.500 C 179.018 233.500, 181 233.114, 181 232.643 C 181 232.172, 181.675 232.045, 182.500 232.362 C 183.325 232.678, 184 232.426, 184 231.802 C 184 231.178, 184.293 230.960, 184.651 231.318 C 185.009 231.676, 185.943 231.188, 186.725 230.234 C 187.675 229.077, 187.933 228.999, 187.500 230 C 187.044 231.055, 187.265 230.998, 188.244 229.808 C 189.010 228.877, 190.731 227.155, 192.068 225.981 C 193.406 224.808, 193.893 224.161, 193.150 224.544 C 192.062 225.106, 192.021 224.830, 192.935 223.121 C 193.560 221.954, 194.513 221, 195.054 221 C 195.619 221, 195.755 219.872, 195.373 218.351 C 194.990 216.822, 195.097 215.942, 195.628 216.270 C 196.135 216.584, 196.537 214.899, 196.524 212.519 C 196.511 210.143, 196.097 208.447, 195.604 208.749 C 195.100 209.058, 195.008 208.104, 195.394 206.565 C 195.880 204.631, 195.745 204.040, 194.933 204.541 C 194.148 205.027, 193.990 204.607, 194.434 203.209 C 194.805 202.039, 194.571 200.853, 193.886 200.430 C 193.084 199.934, 192.930 200.153, 193.420 201.095 C 193.820 201.868, 193.454 201.646, 192.606 200.603 C 191.758 199.559, 191.264 198.382, 191.508 197.986 C 191.753 197.591, 190.951 196.420, 189.726 195.384 C 187.520 193.517, 187.514 193.519, 189 195.549 C 190.486 197.579, 190.481 197.578, 188.500 195.534 C 187.400 194.399, 186.155 193.398, 185.733 193.311 C 185.312 193.223, 183.564 192.844, 181.850 192.467 C 179.556 191.963, 179.099 191.551, 180.117 190.907 C 181.022 190.333, 179.944 190.050, 177 190.086 C 173.421 190.129, 172.909 190.332, 174.500 191.078 M 246.760 192.420 C 247.074 192.929, 246.562 193.046, 245.612 192.681 C 244.668 192.319, 244.142 192.421, 244.442 192.907 C 244.743 193.393, 244.293 194.057, 243.442 194.384 C 242.401 194.783, 242.130 194.572, 242.612 193.739 C 243.005 193.057, 242.196 193.688, 240.812 195.141 C 239.429 196.593, 238.009 198.534, 237.656 199.454 C 237.286 200.419, 236.516 200.819, 235.837 200.399 C 235.042 199.908, 234.868 200.212, 235.299 201.336 C 235.650 202.251, 235.515 203, 235 203 C 234.485 203, 234.350 203.749, 234.701 204.664 C 235.053 205.579, 234.926 206.072, 234.420 205.760 C 233.894 205.434, 233.500 208.148, 233.500 212.095 C 233.500 215.893, 233.886 219, 234.357 219 C 234.828 219, 234.955 219.675, 234.638 220.500 C 234.322 221.325, 234.574 222, 235.198 222 C 235.822 222, 236.071 222.262, 235.751 222.583 C 235.430 222.903, 237.043 225.008, 239.334 227.260 C 241.625 229.511, 242.868 230.980, 242.095 230.522 C 241.167 229.973, 240.924 230.067, 241.378 230.802 C 241.755 231.413, 242.798 231.631, 243.696 231.286 C 244.850 230.844, 245.097 231.034, 244.539 231.937 C 243.947 232.894, 244.314 233.035, 246 232.500 C 247.238 232.107, 248.014 232.171, 247.725 232.643 C 247.436 233.114, 249.363 233.502, 252.007 233.505 C 254.699 233.508, 256.564 233.103, 256.244 232.585 C 255.927 232.073, 256.426 231.949, 257.359 232.307 C 258.395 232.705, 259.821 232.179, 261.059 230.941 C 262.167 229.833, 263.475 229.176, 263.967 229.480 C 264.459 229.784, 265.224 229.463, 265.666 228.766 C 266.108 228.070, 266.515 227.275, 266.571 227 C 266.627 226.725, 267.019 225.715, 267.441 224.756 C 267.864 223.796, 268.689 223.308, 269.275 223.670 C 269.943 224.083, 270.102 223.708, 269.701 222.664 C 269.350 221.749, 269.457 221, 269.938 221 C 270.419 221, 270.559 220.030, 270.249 218.844 C 269.939 217.658, 270.093 216.938, 270.592 217.244 C 271.092 217.550, 271.502 215.635, 271.505 212.987 C 271.508 210.157, 271.167 208.653, 270.677 209.337 C 270.191 210.015, 270.041 209.276, 270.319 207.563 C 270.580 205.948, 270.568 204.038, 270.292 203.319 C 270.016 202.600, 269.388 202.260, 268.895 202.565 C 268.403 202.869, 267.947 202.529, 267.882 201.809 C 267.816 201.089, 267.725 200.275, 267.678 200 C 267.631 199.725, 266.026 197.925, 264.112 196 C 262.197 194.075, 260.962 193.057, 261.367 193.739 C 261.866 194.577, 261.605 194.785, 260.558 194.384 C 259.707 194.057, 259.257 193.393, 259.558 192.907 C 259.858 192.421, 259.332 192.319, 258.388 192.681 C 257.438 193.046, 256.926 192.929, 257.240 192.420 C 257.562 191.900, 255.281 191.500, 252 191.500 C 248.719 191.500, 246.438 191.900, 246.760 192.420 M 232.252 212.500 C 232.263 214.700, 232.468 215.482, 232.707 214.238 C 232.946 212.994, 232.937 211.194, 232.687 210.238 C 232.437 209.282, 232.241 210.300, 232.252 212.500 M 388.195 220.500 C 388.215 222.150, 388.439 222.704, 388.693 221.731 C 388.947 220.758, 388.930 219.408, 388.656 218.731 C 388.382 218.054, 388.175 218.850, 388.195 220.500 M 27.400 240.500 C 27.401 248.750, 27.556 251.992, 27.744 247.704 C 27.932 243.417, 27.931 236.667, 27.742 232.704 C 27.552 228.742, 27.399 232.250, 27.400 240.500 M 338.195 240.500 C 338.215 242.150, 338.439 242.704, 338.693 241.731 C 338.947 240.758, 338.930 239.408, 338.656 238.731 C 338.382 238.054, 338.175 238.850, 338.195 240.500 M 388.195 259.500 C 388.215 261.150, 388.439 261.704, 388.693 260.731 C 388.947 259.758, 388.930 258.408, 388.656 257.731 C 388.382 257.054, 388.175 257.850, 388.195 259.500 M 209.762 279.707 C 211.006 279.946, 212.806 279.937, 213.762 279.687 C 214.718 279.437, 213.700 279.241, 211.500 279.252 C 209.300 279.263, 208.518 279.468, 209.762 279.707 M 218.250 279.689 C 219.213 279.941, 220.787 279.941, 221.750 279.689 C 222.713 279.438, 221.925 279.232, 220 279.232 C 218.075 279.232, 217.287 279.438, 218.250 279.689 M 204.728 307.722 C 206.503 307.943, 209.653 307.946, 211.728 307.730 C 213.802 307.513, 212.350 307.333, 208.500 307.328 C 204.650 307.324, 202.952 307.501, 204.728 307.722 M 143.924 317.750 L 141.500 320.500 144.250 318.076 C 145.762 316.742, 147 315.505, 147 315.326 C 147 315.147, 146.853 315, 146.674 315 C 146.495 315, 145.258 316.238, 143.924 317.750 M 317.437 325.250 L 314.500 328.500 317.750 325.563 C 319.538 323.948, 321 322.485, 321 322.313 C 321 322.141, 320.859 322, 320.687 322 C 320.515 322, 319.052 323.462, 317.437 325.250 M 284.300 379 C 284.300 382.025, 284.487 383.262, 284.716 381.750 C 284.945 380.238, 284.945 377.762, 284.716 376.250 C 284.487 374.738, 284.300 375.975, 284.300 379 M 116.232 384 C 116.232 385.925, 116.438 386.712, 116.689 385.750 C 116.941 384.788, 116.941 383.212, 116.689 382.250 C 116.438 381.288, 116.232 382.075, 116.232 384 M 273.252 387.500 C 273.263 389.700, 273.468 390.482, 273.707 389.238 C 273.946 387.994, 273.937 386.194, 273.687 385.238 C 273.437 384.282, 273.241 385.300, 273.252 387.500 M 284.300 396 C 284.300 399.025, 284.487 400.262, 284.716 398.750 C 284.945 397.238, 284.945 394.762, 284.716 393.250 C 284.487 391.738, 284.300 392.975, 284.300 396" stroke="none" fill="#ff4f09" fill-rule="evenodd"/><path d="M 190 43.527 C 184.225 44.247, 176.350 45.575, 172.500 46.477 C 168.650 47.379, 162.800 48.947, 159.500 49.962 C 156.200 50.976, 151.025 52.785, 148 53.982 C 144.975 55.179, 138.225 58.302, 133 60.922 C 127.775 63.542, 120.248 67.796, 116.274 70.376 C 112.300 72.955, 105.550 77.837, 101.274 81.225 C 96.998 84.612, 89.671 91.235, 84.991 95.942 C 80.312 100.649, 73.082 109, 68.925 114.500 C 64.768 120, 59.276 127.886, 56.721 132.024 C 54.165 136.162, 49.992 144.005, 47.447 149.452 C 44.901 154.899, 41.479 162.988, 39.842 167.428 C 38.204 171.867, 35.813 179.550, 34.528 184.500 C 33.243 189.450, 31.204 199.350, 29.998 206.500 C 28.034 218.138, 27.853 222.067, 28.263 244 C 28.627 263.425, 29.148 270.583, 30.777 278.557 C 31.907 284.088, 33.594 291.288, 34.525 294.557 C 35.456 297.826, 37.059 302.975, 38.088 306 C 39.116 309.025, 40.668 313.525, 41.538 316 C 42.407 318.475, 45.979 326.350, 49.477 333.500 C 52.974 340.650, 58.388 350.325, 61.508 355 C 64.629 359.675, 69.708 366.650, 72.796 370.500 C 75.884 374.350, 82.480 381.556, 87.455 386.513 C 92.430 391.471, 101.095 398.980, 106.710 403.201 C 112.326 407.422, 120.724 413.122, 125.372 415.868 C 130.020 418.613, 137.648 422.660, 142.324 424.861 C 146.999 427.061, 155.702 430.452, 161.662 432.396 C 167.623 434.340, 177.017 436.835, 182.537 437.941 C 188.057 439.046, 198.857 440.237, 206.537 440.587 C 214.339 440.942, 225.353 440.753, 231.500 440.159 C 237.550 439.573, 246.550 438.142, 251.500 436.977 C 256.450 435.812, 265 433.365, 270.500 431.539 C 276 429.713, 283.950 426.602, 288.167 424.626 C 292.384 422.651, 298.684 419.366, 302.167 417.327 C 305.650 415.288, 312.100 411.060, 316.500 407.933 C 320.900 404.805, 328.632 398.592, 333.681 394.127 C 338.731 389.662, 347.186 380.977, 352.470 374.828 C 357.755 368.679, 364.778 359.565, 368.078 354.574 C 371.377 349.583, 376.784 340.198, 380.093 333.719 C 383.402 327.239, 387.698 317.564, 389.640 312.219 C 391.582 306.873, 394.443 297.325, 395.997 291 C 397.551 284.675, 399.591 274.001, 400.530 267.281 C 401.854 257.811, 402.126 250.724, 401.737 235.781 C 401.462 225.176, 400.502 211.916, 399.606 206.312 C 398.709 200.709, 396.829 191.709, 395.428 186.312 C 394.027 180.916, 391.732 173.125, 390.329 169 C 388.926 164.875, 385.195 156.100, 382.038 149.500 C 378.880 142.900, 373.032 132.578, 369.042 126.563 C 365.052 120.547, 358.729 111.997, 354.992 107.563 C 351.255 103.128, 345.115 96.538, 341.349 92.917 C 337.582 89.296, 332.025 84.302, 329 81.817 C 325.975 79.333, 320.125 75.051, 316 72.302 C 311.875 69.552, 305.125 65.458, 301 63.204 C 296.875 60.949, 288.789 57.239, 283.032 54.960 C 277.275 52.680, 267.600 49.501, 261.532 47.895 C 255.464 46.288, 244.650 44.309, 237.500 43.497 C 230.350 42.684, 219.100 42.064, 212.500 42.118 C 205.900 42.172, 195.775 42.806, 190 43.527 M 191 56.538 C 185.775 57.255, 178.125 58.729, 174 59.815 C 169.875 60.901, 163.734 62.726, 160.354 63.871 C 156.973 65.015, 150.489 67.586, 145.945 69.584 C 141.400 71.582, 135.616 74.365, 133.091 75.767 C 130.566 77.169, 125.350 80.358, 121.500 82.852 C 117.650 85.347, 111.125 90.191, 107 93.615 C 102.875 97.040, 96.538 102.915, 92.917 106.671 C 89.296 110.427, 84.295 115.975, 81.802 119 C 79.309 122.025, 74.693 128.325, 71.544 133 C 68.394 137.675, 62.974 147.350, 59.499 154.500 C 56.024 161.650, 51.570 172.450, 49.601 178.500 C 47.633 184.550, 45.312 192.875, 44.444 197 C 43.576 201.125, 42.225 210.125, 41.443 217 C 40.660 223.875, 40.015 234.355, 40.010 240.289 C 40.004 246.224, 40.466 255.449, 41.036 260.789 C 41.606 266.130, 42.783 273.875, 43.653 278 C 44.523 282.125, 46.278 289.100, 47.555 293.500 C 48.831 297.900, 50.882 304.424, 52.113 307.997 C 53.343 311.570, 57.313 320.345, 60.935 327.497 C 64.556 334.649, 69.667 343.694, 72.291 347.599 C 74.916 351.503, 80.824 359.153, 85.419 364.599 C 90.015 370.044, 96.066 376.723, 98.865 379.440 C 101.664 382.157, 104.155 384.179, 104.400 383.933 C 104.645 383.688, 105.363 378.765, 105.995 372.994 C 106.627 367.222, 107.952 359.575, 108.939 356 C 109.926 352.425, 112.141 346.125, 113.861 342 C 115.581 337.875, 119.204 331.047, 121.911 326.826 C 124.619 322.605, 130.221 315.607, 134.360 311.275 L 141.885 303.398 136.192 300.046 C 133.062 298.202, 127.435 294.246, 123.688 291.254 C 119.941 288.262, 114.200 282.446, 110.930 278.331 C 107.660 274.216, 103.217 267.170, 101.058 262.674 C 98.898 258.178, 96.448 251.800, 95.611 248.500 C 94.775 245.200, 93.816 239.575, 93.481 236 C 93.145 232.425, 93.298 227.324, 93.822 224.663 C 94.774 219.829, 94.772 219.825, 90.448 215.501 C 88.069 213.122, 85.005 208.970, 83.639 206.274 C 82.273 203.579, 80.581 198.589, 79.878 195.187 C 78.846 190.190, 78.843 187.798, 79.862 182.750 C 80.555 179.313, 82.266 174.250, 83.663 171.500 C 85.060 168.750, 87.844 164.776, 89.851 162.668 C 91.858 160.560, 95.300 157.790, 97.500 156.512 C 99.700 155.234, 104.078 153.627, 107.228 152.940 C 112.185 151.860, 113.826 151.927, 119.405 153.437 C 123.486 154.542, 127.279 156.403, 129.738 158.508 L 133.623 161.833 138.418 158.848 C 141.055 157.207, 146.878 154.248, 151.356 152.273 C 155.835 150.299, 162.200 147.839, 165.500 146.808 C 168.800 145.776, 176.199 144.047, 181.943 142.966 C 187.686 141.885, 194.758 141, 197.658 141 L 202.931 141 206.413 129.750 C 208.329 123.563, 211.909 111.573, 214.369 103.107 C 217.104 93.693, 219.627 86.928, 220.864 85.691 L 222.887 83.669 235.693 87.448 C 242.737 89.526, 250.750 91.892, 253.500 92.706 C 256.250 93.520, 259.737 94.648, 261.249 95.214 C 263.744 96.147, 264.364 95.866, 267.926 92.195 C 270.593 89.448, 273.629 87.589, 277.383 86.405 C 282.115 84.914, 283.685 84.835, 288.263 85.860 C 291.404 86.562, 295.139 88.314, 297.308 90.102 C 299.340 91.777, 302.202 95.194, 303.668 97.696 C 305.884 101.478, 306.332 103.446, 306.325 109.372 C 306.319 114.659, 305.768 117.570, 304.193 120.643 C 303.025 122.921, 300.195 126.389, 297.904 128.350 C 295.210 130.656, 291.904 132.326, 288.541 133.078 C 284.243 134.040, 282.400 133.968, 277.901 132.660 C 274.604 131.701, 271.126 129.781, 269.078 127.789 C 267.218 125.980, 264.644 122.250, 263.358 119.500 C 262.072 116.750, 261.015 113.075, 261.010 111.333 C 261 108.271, 260.760 108.094, 253.750 105.985 C 249.762 104.785, 242.989 102.723, 238.698 101.402 C 234.407 100.081, 230.275 99, 229.516 99 C 228.756 99, 227.864 100.013, 227.532 101.250 C 227.200 102.487, 226.264 105.750, 225.450 108.500 C 224.637 111.250, 222.168 119.528, 219.964 126.895 C 217.760 134.262, 216.079 140.399, 216.228 140.532 C 216.378 140.665, 220.550 141.567, 225.500 142.536 C 230.450 143.505, 236.941 145.134, 239.925 146.155 C 245.261 147.982, 245.438 147.980, 250.713 146.006 C 254.795 144.479, 258.513 144, 266.291 144 C 273.307 144, 278.541 144.588, 283.003 145.876 C 286.576 146.908, 291.300 148.585, 293.500 149.602 C 295.700 150.620, 299.975 153.093, 303 155.098 C 306.025 157.103, 311.062 161.389, 314.194 164.622 C 317.326 167.855, 322.084 173.425, 324.768 177 C 327.451 180.575, 331.279 186.298, 333.273 189.718 C 335.267 193.137, 338.205 198.987, 339.800 202.718 C 341.395 206.448, 343.193 210.850, 343.795 212.500 C 344.397 214.150, 345.909 219.100, 347.154 223.500 C 349.119 230.438, 349.424 233.889, 349.455 249.500 C 349.488 266.467, 349.326 268.045, 346.635 277 C 345.064 282.225, 342.409 289.425, 340.734 293 C 339.059 296.575, 335.451 302.828, 332.715 306.896 C 329.980 310.964, 324.331 317.863, 320.161 322.227 C 315.991 326.592, 309.862 332.309, 306.540 334.932 C 303.218 337.555, 298.202 341.301, 295.393 343.257 C 292.584 345.213, 288.452 347.749, 286.211 348.893 C 283.969 350.036, 281.872 351.399, 281.549 351.921 C 281.226 352.443, 281.461 355.037, 282.071 357.685 C 282.680 360.333, 283.528 368.125, 283.955 375 C 284.382 381.875, 284.412 392.900, 284.021 399.500 C 283.631 406.100, 283.433 411.653, 283.580 411.841 C 283.728 412.029, 288.720 409.379, 294.674 405.954 C 300.628 402.529, 308.425 397.661, 312 395.137 C 315.575 392.613, 324.350 384.798, 331.500 377.769 C 338.650 370.741, 347.232 361.280, 350.572 356.745 C 353.911 352.210, 358.932 344.675, 361.729 340 C 364.526 335.325, 368.395 328.125, 370.327 324 C 372.259 319.875, 374.592 314.700, 375.511 312.500 C 376.430 310.300, 378.538 304.450, 380.195 299.500 C 381.853 294.550, 384.329 285.550, 385.698 279.500 C 387.840 270.034, 388.258 265.222, 388.698 245 C 389.153 224.067, 388.972 220.080, 387.046 208.500 C 385.856 201.350, 383.969 192.125, 382.851 188 C 381.734 183.875, 379.645 177.125, 378.209 173 C 376.772 168.875, 372.818 159.996, 369.422 153.269 C 366.026 146.542, 360.154 136.430, 356.374 130.799 C 352.187 124.562, 344.649 115.549, 337.091 107.743 C 330.267 100.694, 320.817 92.105, 316.091 88.657 C 311.366 85.208, 304.800 80.775, 301.500 78.806 C 298.200 76.837, 293.056 74.001, 290.068 72.504 C 287.081 71.007, 280.727 68.272, 275.949 66.427 C 271.171 64.582, 262.929 61.919, 257.633 60.510 C 252.336 59.101, 242.715 57.288, 236.252 56.482 C 229.788 55.676, 219.100 55.065, 212.500 55.126 C 205.900 55.186, 196.225 55.822, 191 56.538 M 277.217 98.561 C 275.991 99.419, 274.316 101.422, 273.494 103.011 C 272.672 104.600, 272 107.520, 272 109.500 C 272 111.480, 272.652 114.360, 273.449 115.901 C 274.246 117.442, 276.030 119.445, 277.414 120.352 C 278.797 121.258, 281.761 122, 284 122 C 286.239 122, 289.203 121.258, 290.586 120.352 C 291.970 119.445, 293.754 117.442, 294.551 115.901 C 295.348 114.360, 296 111.713, 296 110.018 C 296 108.323, 295.373 105.434, 294.606 103.599 C 293.839 101.763, 292.164 99.528, 290.883 98.631 C 289.558 97.703, 286.593 97, 284 97 C 281.491 97, 278.444 97.701, 277.217 98.561 M 182.500 155.981 C 177.550 156.977, 170.575 158.767, 167 159.957 C 163.425 161.147, 156.381 164.108, 151.347 166.536 C 146.312 168.964, 138.868 173.593, 134.805 176.822 C 130.741 180.051, 125.096 185.609, 122.261 189.172 C 119.425 192.736, 115.331 198.992, 113.163 203.076 C 110.994 207.159, 108.387 212.975, 107.369 216 C 106.022 220.002, 105.527 224.360, 105.550 232 C 105.575 240.205, 106.075 243.953, 107.838 249.147 C 109.079 252.802, 111.761 258.542, 113.797 261.901 C 115.834 265.261, 120.425 270.996, 124 274.646 C 127.575 278.295, 133.062 283.188, 136.194 285.519 C 139.325 287.849, 146.075 291.812, 151.194 294.325 C 156.312 296.839, 164.100 300.017, 168.500 301.389 C 172.900 302.761, 180.550 304.649, 185.500 305.585 C 191.109 306.645, 199.586 307.295, 208 307.311 C 216.720 307.327, 224.478 306.742, 229.911 305.658 C 234.538 304.736, 241.288 303.070, 244.911 301.956 C 248.535 300.843, 255.574 297.955, 260.553 295.539 C 265.533 293.123, 272.335 289.096, 275.670 286.588 C 279.006 284.081, 283.381 280.021, 285.393 277.565 C 287.406 275.109, 290.351 270.482, 291.939 267.283 C 293.526 264.083, 295.539 258.709, 296.412 255.339 C 297.286 251.969, 298 246.546, 298 243.289 C 298 240.032, 297.527 234.697, 296.949 231.434 C 296.371 228.170, 294.786 222.093, 293.427 217.930 C 292.068 213.766, 289.009 206.514, 286.631 201.814 C 284.252 197.114, 281.109 191.698, 279.645 189.779 L 276.984 186.290 264.742 185.708 C 257.239 185.352, 249.837 184.366, 245.620 183.161 C 241.836 182.081, 237.561 180.323, 236.120 179.256 C 234.679 178.189, 232.488 175.828, 231.250 174.010 C 230.012 172.192, 229 169.516, 229 168.064 C 229 166.611, 229.900 163.658, 231 161.500 C 232.100 159.342, 233 157.483, 233 157.369 C 233 157.254, 229.874 156.449, 226.053 155.580 C 221.390 154.520, 214.566 154.028, 205.303 154.084 C 196.270 154.139, 188.390 154.795, 182.500 155.981 M 255 156.537 C 252.525 157.305, 248.809 159.334, 246.743 161.045 C 244.677 162.757, 242.516 165.036, 241.940 166.111 C 241.023 167.826, 241.421 168.297, 245.197 169.955 C 247.690 171.049, 255.389 172.540, 263.500 173.500 C 271.200 174.411, 278.975 175.369, 280.777 175.628 C 283.264 175.987, 284.880 177.234, 287.480 180.800 C 289.365 183.385, 293.192 189.858, 295.985 195.184 C 298.777 200.510, 301.990 207.485, 303.123 210.684 C 304.257 213.883, 305.821 218.975, 306.599 222 C 307.377 225.025, 308.297 232.233, 308.644 238.018 C 309.124 246.017, 308.865 250.559, 307.564 256.980 C 306.623 261.625, 304.303 268.603, 302.409 272.488 C 300.514 276.373, 296.759 282.240, 294.065 285.526 C 291.370 288.812, 286.091 293.820, 282.333 296.655 C 278.575 299.491, 273.390 302.977, 270.811 304.403 C 268.233 305.829, 262.292 308.540, 257.610 310.428 C 252.928 312.315, 246.263 314.605, 242.799 315.517 C 239.334 316.429, 232 317.796, 226.500 318.556 C 221 319.315, 212.450 319.948, 207.500 319.962 C 202.550 319.977, 194.187 319.338, 188.916 318.543 C 183.644 317.749, 175.878 316.173, 171.658 315.042 C 167.438 313.911, 161.782 312.149, 159.089 311.126 L 154.194 309.266 149.128 313.383 C 146.342 315.647, 142.320 319.525, 140.190 322 C 138.060 324.475, 134.440 329.263, 132.146 332.640 C 129.851 336.018, 126.577 341.862, 124.869 345.629 C 123.161 349.395, 120.730 356.552, 119.467 361.532 C 118.204 366.512, 116.851 375.772, 116.460 382.110 L 115.751 393.633 120.697 397.187 C 123.418 399.142, 129.256 402.824, 133.670 405.370 C 138.085 407.917, 141.877 409.999, 142.098 409.997 C 142.319 409.995, 142.541 402.458, 142.590 393.247 C 142.662 379.930, 143.114 374.657, 144.797 367.500 C 145.961 362.550, 147.839 355.824, 148.971 352.553 C 150.102 349.283, 151.667 345.630, 152.449 344.437 C 153.231 343.243, 154.850 342.011, 156.046 341.698 C 157.548 341.305, 158.991 341.900, 160.712 343.621 C 162.235 345.144, 162.982 346.771, 162.634 347.806 C 162.321 348.738, 160.771 353.325, 159.190 358 C 157.608 362.675, 155.505 371.450, 154.516 377.500 C 153.104 386.139, 152.859 391.287, 153.375 401.480 C 153.791 409.705, 154.483 414.882, 155.266 415.612 C 155.945 416.245, 159.060 417.700, 162.189 418.845 C 165.318 419.990, 171.618 421.891, 176.189 423.071 C 180.760 424.250, 189 425.828, 194.500 426.576 C 200 427.324, 209.225 427.943, 215 427.950 C 220.775 427.957, 230.083 427.312, 235.684 426.516 C 241.285 425.719, 250.041 423.894, 255.143 422.460 C 260.245 421.025, 265.852 419.253, 267.603 418.522 C 270.392 417.356, 270.865 416.591, 271.424 412.346 C 271.774 409.681, 272.469 403.053, 272.968 397.617 C 273.510 391.710, 273.510 383.263, 272.968 376.617 C 272.470 370.502, 271.399 362.036, 270.590 357.804 C 269.780 353.572, 268.156 346.881, 266.980 342.934 C 265.805 338.988, 265.109 334.701, 265.434 333.408 C 265.758 332.116, 266.846 330.618, 267.850 330.080 C 268.855 329.543, 270.667 329.362, 271.878 329.678 C 273.089 329.995, 274.737 331.525, 275.540 333.077 C 276.343 334.630, 277 336.571, 277 337.391 C 277 338.211, 277.424 339.144, 277.943 339.465 C 278.462 339.786, 281.499 338.393, 284.693 336.370 C 287.887 334.347, 294.100 329.894, 298.500 326.474 C 302.900 323.054, 308.781 317.836, 311.569 314.878 C 314.357 311.920, 318.701 306.696, 321.223 303.270 C 323.745 299.843, 327.703 293.179, 330.019 288.461 C 332.335 283.742, 335.108 276.646, 336.182 272.691 C 337.333 268.450, 338.364 260.550, 338.695 253.434 C 339.122 244.248, 338.851 239.355, 337.558 232.934 C 336.624 228.295, 334.708 221.125, 333.299 217 C 331.891 212.875, 329.160 206.350, 327.231 202.500 C 325.302 198.650, 321.527 192.245, 318.843 188.268 C 316.159 184.290, 310.584 177.668, 306.455 173.552 C 302.258 169.369, 296.017 164.430, 292.303 162.353 C 288.648 160.309, 282.707 157.818, 279.101 156.818 C 275.494 155.818, 269.609 155.031, 266.022 155.070 C 262.435 155.108, 257.475 155.768, 255 156.537 M 103 167.078 C 101.075 168.196, 97.836 171.360, 95.803 174.110 C 93.443 177.301, 91.861 180.746, 91.428 183.633 C 91.055 186.121, 91.025 190.169, 91.363 192.629 C 91.700 195.090, 93.149 199.104, 94.583 201.551 C 96.017 203.998, 97.507 206, 97.894 206 C 98.281 206, 99.164 204.436, 99.855 202.524 C 100.546 200.612, 103.727 195.100, 106.922 190.274 C 110.118 185.448, 115.323 178.668, 118.489 175.207 C 121.656 171.745, 124.078 168.783, 123.873 168.625 C 123.668 168.466, 122.387 167.586, 121.027 166.668 C 119.384 165.560, 116.533 165.008, 112.527 165.023 C 108.316 165.039, 105.446 165.658, 103 167.078 M 173 254 C 171.900 255.100, 171 256.977, 171 258.171 C 171 259.425, 172.819 262.085, 175.300 264.463 C 177.665 266.730, 182.080 269.983, 185.110 271.693 C 188.140 273.403, 193.742 275.768, 197.559 276.949 C 202.870 278.592, 207.104 279.100, 215.584 279.112 C 224.959 279.126, 227.811 278.730, 234.073 276.542 C 238.145 275.119, 243.887 272.503, 246.833 270.728 C 249.779 268.952, 253.749 265.781, 255.655 263.680 C 257.784 261.334, 259.001 259.058, 258.810 257.781 C 258.640 256.637, 257.282 254.795, 255.794 253.688 L 253.089 251.676 248.961 254.588 C 246.691 256.190, 242.545 258.953, 239.747 260.728 C 236.950 262.504, 232.156 264.685, 229.094 265.575 C 226.032 266.465, 221.271 267.415, 218.514 267.687 C 215.756 267.958, 210.202 267.482, 206.172 266.628 C 202.141 265.774, 196.516 264.008, 193.672 262.705 C 190.827 261.401, 186.335 258.459, 183.689 256.167 C 181.043 253.875, 178.006 252, 176.939 252 C 175.873 252, 174.100 252.900, 173 254" stroke="none" fill="#080c0e" fill-rule="evenodd"/><path d="M 190 43.527 C 184.225 44.247, 176.350 45.575, 172.500 46.477 C 168.650 47.379, 162.800 48.947, 159.500 49.962 C 156.200 50.976, 151.025 52.785, 148 53.982 C 144.975 55.179, 138.225 58.302, 133 60.922 C 127.775 63.542, 120.248 67.796, 116.274 70.376 C 112.300 72.955, 105.550 77.837, 101.274 81.225 C 96.998 84.612, 89.671 91.235, 84.991 95.942 C 80.312 100.649, 73.082 109, 68.925 114.500 C 64.768 120, 59.276 127.886, 56.721 132.024 C 54.165 136.162, 49.992 144.005, 47.447 149.452 C 44.901 154.899, 41.479 162.988, 39.842 167.428 C 38.204 171.867, 35.813 179.550, 34.528 184.500 C 33.243 189.450, 31.204 199.350, 29.998 206.500 C 28.034 218.138, 27.853 222.067, 28.263 244 C 28.627 263.425, 29.148 270.583, 30.777 278.557 C 31.907 284.088, 33.594 291.288, 34.525 294.557 C 35.456 297.826, 37.059 302.975, 38.088 306 C 39.116 309.025, 40.668 313.525, 41.538 316 C 42.407 318.475, 45.979 326.350, 49.477 333.500 C 52.974 340.650, 58.388 350.325, 61.508 355 C 64.629 359.675, 69.708 366.650, 72.796 370.500 C 75.884 374.350, 82.480 381.556, 87.455 386.513 C 92.430 391.471, 101.095 398.980, 106.710 403.201 C 112.326 407.422, 120.724 413.122, 125.372 415.868 C 130.020 418.613, 137.648 422.660, 142.324 424.861 C 146.999 427.061, 155.702 430.452, 161.662 432.396 C 167.623 434.340, 177.017 436.835, 182.537 437.941 C 188.057 439.046, 198.857 440.237, 206.537 440.587 C 214.339 440.942, 225.353 440.753, 231.500 440.159 C 237.550 439.573, 246.550 438.142, 251.500 436.977 C 256.450 435.812, 265 433.365, 270.500 431.539 C 276 429.713, 283.950 426.602, 288.167 424.626 C 292.384 422.651, 298.684 419.366, 302.167 417.327 C 305.650 415.288, 312.100 411.060, 316.500 407.933 C 320.900 404.805, 328.632 398.592, 333.681 394.127 C 338.731 389.662, 347.186 380.977, 352.470 374.828 C 357.755 368.679, 364.778 359.565, 368.078 354.574 C 371.377 349.583, 376.784 340.198, 380.093 333.719 C 383.402 327.239, 387.698 317.564, 389.640 312.219 C 391.582 306.873, 394.443 297.325, 395.997 291 C 397.551 284.675, 399.591 274.001, 400.530 267.281 C 401.854 257.811, 402.126 250.724, 401.737 235.781 C 401.462 225.176, 400.502 211.916, 399.606 206.312 C 398.709 200.709, 396.829 191.709, 395.428 186.312 C 394.027 180.916, 391.732 173.125, 390.329 169 C 388.926 164.875, 385.195 156.100, 382.038 149.500 C 378.880 142.900, 373.032 132.578, 369.042 126.563 C 365.052 120.547, 358.729 111.997, 354.992 107.563 C 351.255 103.128, 345.115 96.538, 341.349 92.917 C 337.582 89.296, 332.025 84.302, 329 81.817 C 325.975 79.333, 320.125 75.051, 316 72.302 C 311.875 69.552, 305.125 65.458, 301 63.204 C 296.875 60.949, 288.789 57.239, 283.032 54.960 C 277.275 52.680, 267.600 49.501, 261.532 47.895 C 255.464 46.288, 244.650 44.309, 237.500 43.497 C 230.350 42.684, 219.100 42.064, 212.500 42.118 C 205.900 42.172, 195.775 42.806, 190 43.527 M 191 56.538 C 185.775 57.255, 178.125 58.729, 174 59.815 C 169.875 60.901, 163.734 62.726, 160.354 63.871 C 156.973 65.015, 150.489 67.586, 145.945 69.584 C 141.400 71.582, 135.616 74.365, 133.091 75.767 C 130.566 77.169, 125.350 80.358, 121.500 82.852 C 117.650 85.347, 111.125 90.191, 107 93.615 C 102.875 97.040, 96.538 102.915, 92.917 106.671 C 89.296 110.427, 84.295 115.975, 81.802 119 C 79.309 122.025, 74.693 128.325, 71.544 133 C 68.394 137.675, 62.974 147.350, 59.499 154.500 C 56.024 161.650, 51.570 172.450, 49.601 178.500 C 47.633 184.550, 45.312 192.875, 44.444 197 C 43.576 201.125, 42.225 210.125, 41.443 217 C 40.660 223.875, 40.015 234.355, 40.010 240.289 C 40.004 246.224, 40.466 255.449, 41.036 260.789 C 41.606 266.130, 42.783 273.875, 43.653 278 C 44.523 282.125, 46.278 289.100, 47.555 293.500 C 48.831 297.900, 50.882 304.424, 52.113 307.997 C 53.343 311.570, 57.313 320.345, 60.935 327.497 C 64.556 334.649, 69.667 343.694, 72.291 347.599 C 74.916 351.503, 80.824 359.153, 85.419 364.599 C 90.015 370.044, 96.066 376.723, 98.865 379.440 C 101.664 382.157, 104.155 384.179, 104.400 383.933 C 104.645 383.688, 105.363 378.765, 105.995 372.994 C 106.627 367.222, 107.952 359.575, 108.939 356 C 109.926 352.425, 112.141 346.125, 113.861 342 C 115.581 337.875, 119.204 331.047, 121.911 326.826 C 124.619 322.605, 130.221 315.607, 134.360 311.275 L 141.885 303.398 136.192 300.046 C 133.062 298.202, 127.435 294.246, 123.688 291.254 C 119.941 288.262, 114.200 282.446, 110.930 278.331 C 107.660 274.216, 103.217 267.170, 101.058 262.674 C 98.898 258.178, 96.448 251.800, 95.611 248.500 C 94.775 245.200, 93.816 239.575, 93.481 236 C 93.145 232.425, 93.298 227.324, 93.822 224.663 C 94.774 219.829, 94.772 219.825, 90.448 215.501 C 88.069 213.122, 85.005 208.970, 83.639 206.274 C 82.273 203.579, 80.581 198.589, 79.878 195.187 C 78.846 190.190, 78.843 187.798, 79.862 182.750 C 80.555 179.313, 82.266 174.250, 83.663 171.500 C 85.060 168.750, 87.844 164.776, 89.851 162.668 C 91.858 160.560, 95.300 157.790, 97.500 156.512 C 99.700 155.234, 104.078 153.627, 107.228 152.940 C 112.185 151.860, 113.826 151.927, 119.405 153.437 C 123.486 154.542, 127.279 156.403, 129.738 158.508 L 133.623 161.833 138.418 158.848 C 141.055 157.207, 146.878 154.248, 151.356 152.273 C 155.835 150.299, 162.200 147.839, 165.500 146.808 C 168.800 145.776, 176.199 144.047, 181.943 142.966 C 187.686 141.885, 194.758 141, 197.658 141 L 202.931 141 206.413 129.750 C 208.329 123.563, 211.909 111.573, 214.369 103.107 C 217.104 93.693, 219.627 86.928, 220.864 85.691 L 222.887 83.669 235.693 87.448 C 242.737 89.526, 250.750 91.892, 253.500 92.706 C 256.250 93.520, 259.737 94.648, 261.249 95.214 C 263.744 96.147, 264.364 95.866, 267.926 92.195 C 270.593 89.448, 273.629 87.589, 277.383 86.405 C 282.115 84.914, 283.685 84.835, 288.263 85.860 C 291.404 86.562, 295.139 88.314, 297.308 90.102 C 299.340 91.777, 302.202 95.194, 303.668 97.696 C 305.884 101.478, 306.332 103.446, 306.325 109.372 C 306.319 114.659, 305.768 117.570, 304.193 120.643 C 303.025 122.921, 300.195 126.389, 297.904 128.350 C 295.210 130.656, 291.904 132.326, 288.541 133.078 C 284.243 134.040, 282.400 133.968, 277.901 132.660 C 274.604 131.701, 271.126 129.781, 269.078 127.789 C 267.218 125.980, 264.644 122.250, 263.358 119.500 C 262.072 116.750, 261.015 113.075, 261.010 111.333 C 261 108.271, 260.760 108.094, 253.750 105.985 C 249.762 104.785, 242.989 102.723, 238.698 101.402 C 234.407 100.081, 230.275 99, 229.516 99 C 228.756 99, 227.864 100.013, 227.532 101.250 C 227.200 102.487, 226.264 105.750, 225.450 108.500 C 224.637 111.250, 222.168 119.528, 219.964 126.895 C 217.760 134.262, 216.079 140.399, 216.228 140.532 C 216.378 140.665, 220.550 141.567, 225.500 142.536 C 230.450 143.505, 236.941 145.134, 239.925 146.155 C 245.261 147.982, 245.438 147.980, 250.713 146.006 C 254.795 144.479, 258.513 144, 266.291 144 C 273.307 144, 278.541 144.588, 283.003 145.876 C 286.576 146.908, 291.300 148.585, 293.500 149.602 C 295.700 150.620, 299.975 153.093, 303 155.098 C 306.025 157.103, 311.062 161.389, 314.194 164.622 C 317.326 167.855, 322.084 173.425, 324.768 177 C 327.451 180.575, 331.279 186.298, 333.273 189.718 C 335.267 193.137, 338.205 198.987, 339.800 202.718 C 341.395 206.448, 343.193 210.850, 343.795 212.500 C 344.397 214.150, 345.909 219.100, 347.154 223.500 C 349.119 230.438, 349.424 233.889, 349.455 249.500 C 349.488 266.467, 349.326 268.045, 346.635 277 C 345.064 282.225, 342.409 289.425, 340.734 293 C 339.059 296.575, 335.451 302.828, 332.715 306.896 C 329.980 310.964, 324.331 317.863, 320.161 322.227 C 315.991 326.592, 309.862 332.309, 306.540 334.932 C 303.218 337.555, 298.202 341.301, 295.393 343.257 C 292.584 345.213, 288.452 347.749, 286.211 348.893 C 283.969 350.036, 281.872 351.399, 281.549 351.921 C 281.226 352.443, 281.461 355.037, 282.071 357.685 C 282.680 360.333, 283.528 368.125, 283.955 375 C 284.382 381.875, 284.412 392.900, 284.021 399.500 C 283.631 406.100, 283.433 411.653, 283.580 411.841 C 283.728 412.029, 288.720 409.379, 294.674 405.954 C 300.628 402.529, 308.425 397.661, 312 395.137 C 315.575 392.613, 324.350 384.798, 331.500 377.769 C 338.650 370.741, 347.232 361.280, 350.572 356.745 C 353.911 352.210, 358.932 344.675, 361.729 340 C 364.526 335.325, 368.395 328.125, 370.327 324 C 372.259 319.875, 374.592 314.700, 375.511 312.500 C 376.430 310.300, 378.538 304.450, 380.195 299.500 C 381.853 294.550, 384.329 285.550, 385.698 279.500 C 387.840 270.034, 388.258 265.222, 388.698 245 C 389.153 224.067, 388.972 220.080, 387.046 208.500 C 385.856 201.350, 383.969 192.125, 382.851 188 C 381.734 183.875, 379.645 177.125, 378.209 173 C 376.772 168.875, 372.818 159.996, 369.422 153.269 C 366.026 146.542, 360.154 136.430, 356.374 130.799 C 352.187 124.562, 344.649 115.549, 337.091 107.743 C 330.267 100.694, 320.817 92.105, 316.091 88.657 C 311.366 85.208, 304.800 80.775, 301.500 78.806 C 298.200 76.837, 293.056 74.001, 290.068 72.504 C 287.081 71.007, 280.727 68.272, 275.949 66.427 C 271.171 64.582, 262.929 61.919, 257.633 60.510 C 252.336 59.101, 242.715 57.288, 236.252 56.482 C 229.788 55.676, 219.100 55.065, 212.500 55.126 C 205.900 55.186, 196.225 55.822, 191 56.538 M 277.217 98.561 C 275.991 99.419, 274.316 101.422, 273.494 103.011 C 272.672 104.600, 272 107.520, 272 109.500 C 272 111.480, 272.652 114.360, 273.449 115.901 C 274.246 117.442, 276.030 119.445, 277.414 120.352 C 278.797 121.258, 281.761 122, 284 122 C 286.239 122, 289.203 121.258, 290.586 120.352 C 291.970 119.445, 293.754 117.442, 294.551 115.901 C 295.348 114.360, 296 111.713, 296 110.018 C 296 108.323, 295.373 105.434, 294.606 103.599 C 293.839 101.763, 292.164 99.528, 290.883 98.631 C 289.558 97.703, 286.593 97, 284 97 C 281.491 97, 278.444 97.701, 277.217 98.561 M 182.500 155.981 C 177.550 156.977, 170.575 158.767, 167 159.957 C 163.425 161.147, 156.381 164.108, 151.347 166.536 C 146.312 168.964, 138.868 173.593, 134.805 176.822 C 130.741 180.051, 125.096 185.609, 122.261 189.172 C 119.425 192.736, 115.331 198.992, 113.163 203.076 C 110.994 207.159, 108.387 212.975, 107.369 216 C 106.022 220.002, 105.527 224.360, 105.550 232 C 105.575 240.205, 106.075 243.953, 107.838 249.147 C 109.079 252.802, 111.761 258.542, 113.797 261.901 C 115.834 265.261, 120.425 270.996, 124 274.646 C 127.575 278.295, 133.062 283.188, 136.194 285.519 C 139.325 287.849, 146.075 291.812, 151.194 294.325 C 156.312 296.839, 164.100 300.017, 168.500 301.389 C 172.900 302.761, 180.550 304.649, 185.500 305.585 C 191.109 306.645, 199.586 307.295, 208 307.311 C 216.720 307.327, 224.478 306.742, 229.911 305.658 C 234.538 304.736, 241.288 303.070, 244.911 301.956 C 248.535 300.843, 255.574 297.955, 260.553 295.539 C 265.533 293.123, 272.335 289.096, 275.670 286.588 C 279.006 284.081, 283.381 280.021, 285.393 277.565 C 287.406 275.109, 290.351 270.482, 291.939 267.283 C 293.526 264.083, 295.539 258.709, 296.412 255.339 C 297.286 251.969, 298 246.546, 298 243.289 C 298 240.032, 297.527 234.697, 296.949 231.434 C 296.371 228.170, 294.786 222.093, 293.427 217.930 C 292.068 213.766, 289.009 206.514, 286.631 201.814 C 284.252 197.114, 281.109 191.698, 279.645 189.779 L 276.984 186.290 264.742 185.708 C 257.239 185.352, 249.837 184.366, 245.620 183.161 C 241.836 182.081, 237.561 180.323, 236.120 179.256 C 234.679 178.189, 232.488 175.828, 231.250 174.010 C 230.012 172.192, 229 169.516, 229 168.064 C 229 166.611, 229.900 163.658, 231 161.500 C 232.100 159.342, 233 157.483, 233 157.369 C 233 157.254, 229.874 156.449, 226.053 155.580 C 221.390 154.520, 214.566 154.028, 205.303 154.084 C 196.270 154.139, 188.390 154.795, 182.500 155.981 M 255 156.537 C 252.525 157.305, 248.809 159.334, 246.743 161.045 C 244.677 162.757, 242.516 165.036, 241.940 166.111 C 241.023 167.826, 241.421 168.297, 245.197 169.955 C 247.690 171.049, 255.389 172.540, 263.500 173.500 C 271.200 174.411, 278.975 175.369, 280.777 175.628 C 283.264 175.987, 284.880 177.234, 287.480 180.800 C 289.365 183.385, 293.192 189.858, 295.985 195.184 C 298.777 200.510, 301.990 207.485, 303.123 210.684 C 304.257 213.883, 305.821 218.975, 306.599 222 C 307.377 225.025, 308.297 232.233, 308.644 238.018 C 309.124 246.017, 308.865 250.559, 307.564 256.980 C 306.623 261.625, 304.303 268.603, 302.409 272.488 C 300.514 276.373, 296.759 282.240, 294.065 285.526 C 291.370 288.812, 286.091 293.820, 282.333 296.655 C 278.575 299.491, 273.390 302.977, 270.811 304.403 C 268.233 305.829, 262.292 308.540, 257.610 310.428 C 252.928 312.315, 246.263 314.605, 242.799 315.517 C 239.334 316.429, 232 317.796, 226.500 318.556 C 221 319.315, 212.450 319.948, 207.500 319.962 C 202.550 319.977, 194.187 319.338, 188.916 318.543 C 183.644 317.749, 175.878 316.173, 171.658 315.042 C 167.438 313.911, 161.782 312.149, 159.089 311.126 L 154.194 309.266 149.128 313.383 C 146.342 315.647, 142.320 319.525, 140.190 322 C 138.060 324.475, 134.440 329.263, 132.146 332.640 C 129.851 336.018, 126.577 341.862, 124.869 345.629 C 123.161 349.395, 120.730 356.552, 119.467 361.532 C 118.204 366.512, 116.851 375.772, 116.460 382.110 L 115.751 393.633 120.697 397.187 C 123.418 399.142, 129.256 402.824, 133.670 405.370 C 138.085 407.917, 141.877 409.999, 142.098 409.997 C 142.319 409.995, 142.541 402.458, 142.590 393.247 C 142.662 379.930, 143.114 374.657, 144.797 367.500 C 145.961 362.550, 147.839 355.824, 148.971 352.553 C 150.102 349.283, 151.667 345.630, 152.449 344.437 C 153.231 343.243, 154.850 342.011, 156.046 341.698 C 157.548 341.305, 158.991 341.900, 160.712 343.621 C 162.235 345.144, 162.982 346.771, 162.634 347.806 C 162.321 348.738, 160.771 353.325, 159.190 358 C 157.608 362.675, 155.505 371.450, 154.516 377.500 C 153.104 386.139, 152.859 391.287, 153.375 401.480 C 153.791 409.705, 154.483 414.882, 155.266 415.612 C 155.945 416.245, 159.060 417.700, 162.189 418.845 C 165.318 419.990, 171.618 421.891, 176.189 423.071 C 180.760 424.250, 189 425.828, 194.500 426.576 C 200 427.324, 209.225 427.943, 215 427.950 C 220.775 427.957, 230.083 427.312, 235.684 426.516 C 241.285 425.719, 250.041 423.894, 255.143 422.460 C 260.245 421.025, 265.852 419.253, 267.603 418.522 C 270.392 417.356, 270.865 416.591, 271.424 412.346 C 271.774 409.681, 272.469 403.053, 272.968 397.617 C 273.510 391.710, 273.510 383.263, 272.968 376.617 C 272.470 370.502, 271.399 362.036, 270.590 357.804 C 269.780 353.572, 268.156 346.881, 266.980 342.934 C 265.805 338.988, 265.109 334.701, 265.434 333.408 C 265.758 332.116, 266.846 330.618, 267.850 330.080 C 268.855 329.543, 270.667 329.362, 271.878 329.678 C 273.089 329.995, 274.737 331.525, 275.540 333.077 C 276.343 334.630, 277 336.571, 277 337.391 C 277 338.211, 277.424 339.144, 277.943 339.465 C 278.462 339.786, 281.499 338.393, 284.693 336.370 C 287.887 334.347, 294.100 329.894, 298.500 326.474 C 302.900 323.054, 308.781 317.836, 311.569 314.878 C 314.357 311.920, 318.701 306.696, 321.223 303.270 C 323.745 299.843, 327.703 293.179, 330.019 288.461 C 332.335 283.742, 335.108 276.646, 336.182 272.691 C 337.333 268.450, 338.364 260.550, 338.695 253.434 C 339.122 244.248, 338.851 239.355, 337.558 232.934 C 336.624 228.295, 334.708 221.125, 333.299 217 C 331.891 212.875, 329.160 206.350, 327.231 202.500 C 325.302 198.650, 321.527 192.245, 318.843 188.268 C 316.159 184.290, 310.584 177.668, 306.455 173.552 C 302.258 169.369, 296.017 164.430, 292.303 162.353 C 288.648 160.309, 282.707 157.818, 279.101 156.818 C 275.494 155.818, 269.609 155.031, 266.022 155.070 C 262.435 155.108, 257.475 155.768, 255 156.537 M 103 167.078 C 101.075 168.196, 97.836 171.360, 95.803 174.110 C 93.443 177.301, 91.861 180.746, 91.428 183.633 C 91.055 186.121, 91.025 190.169, 91.363 192.629 C 91.700 195.090, 93.149 199.104, 94.583 201.551 C 96.017 203.998, 97.507 206, 97.894 206 C 98.281 206, 99.164 204.436, 99.855 202.524 C 100.546 200.612, 103.727 195.100, 106.922 190.274 C 110.118 185.448, 115.323 178.668, 118.489 175.207 C 121.656 171.745, 124.078 168.783, 123.873 168.625 C 123.668 168.466, 122.387 167.586, 121.027 166.668 C 119.384 165.560, 116.533 165.008, 112.527 165.023 C 108.316 165.039, 105.446 165.658, 103 167.078 M 173 254 C 171.900 255.100, 171 256.977, 171 258.171 C 171 259.425, 172.819 262.085, 175.300 264.463 C 177.665 266.730, 182.080 269.983, 185.110 271.693 C 188.140 273.403, 193.742 275.768, 197.559 276.949 C 202.870 278.592, 207.104 279.100, 215.584 279.112 C 224.959 279.126, 227.811 278.730, 234.073 276.542 C 238.145 275.119, 243.887 272.503, 246.833 270.728 C 249.779 268.952, 253.749 265.781, 255.655 263.680 C 257.784 261.334, 259.001 259.058, 258.810 257.781 C 258.640 256.637, 257.282 254.795, 255.794 253.688 L 253.089 251.676 248.961 254.588 C 246.691 256.190, 242.545 258.953, 239.747 260.728 C 236.950 262.504, 232.156 264.685, 229.094 265.575 C 226.032 266.465, 221.271 267.415, 218.514 267.687 C 215.756 267.958, 210.202 267.482, 206.172 266.628 C 202.141 265.774, 196.516 264.008, 193.672 262.705 C 190.827 261.401, 186.335 258.459, 183.689 256.167 C 181.043 253.875, 178.006 252, 176.939 252 C 175.873 252, 174.100 252.900, 173 254" stroke="none" fill="#080c0e" fill-rule="evenodd"/><path d="M -0 230.002 L -0 460.005 210.250 459.752 L 420.500 459.500 420.752 229.750 L 421.004 0 210.502 0 L 0 0 -0 230.002 M 0.491 230.500 C 0.492 357, 0.608 408.601, 0.750 345.170 C 0.892 281.738, 0.892 178.238, 0.750 115.170 C 0.608 52.101, 0.491 104, 0.491 230.500 M 192 42.944 C 187.875 43.388, 180 44.731, 174.500 45.929 C 169 47.127, 160.450 49.456, 155.500 51.104 C 150.550 52.752, 141.484 56.561, 135.352 59.567 C 129.221 62.574, 120.714 67.312, 116.448 70.098 C 112.182 72.883, 105.498 77.693, 101.596 80.788 C 97.693 83.883, 91.851 88.909, 88.613 91.958 C 85.375 95.006, 79.110 101.775, 74.692 107 C 70.273 112.225, 63.854 120.775, 60.426 126 C 56.999 131.225, 52.160 139.564, 49.674 144.532 C 47.187 149.499, 43.723 157.149, 41.977 161.532 C 40.230 165.914, 37.973 172.200, 36.962 175.500 C 35.950 178.800, 34.242 185.100, 33.166 189.500 C 32.089 193.900, 30.384 202.450, 29.377 208.500 C 28.026 216.613, 27.539 224.880, 27.524 240 C 27.508 255.408, 27.962 263.232, 29.354 271.500 C 30.373 277.550, 32.265 286.584, 33.558 291.575 C 34.851 296.567, 37.454 304.892, 39.343 310.075 C 41.231 315.259, 44.436 323.251, 46.464 327.835 C 48.493 332.419, 51.468 338.402, 53.076 341.129 C 54.684 343.856, 56 346.314, 56 346.589 C 56 346.865, 58.331 350.557, 61.179 354.795 C 64.028 359.033, 68.844 365.650, 71.882 369.500 C 74.920 373.350, 80.127 379.373, 83.453 382.884 C 86.779 386.395, 93.775 392.882, 99 397.299 C 104.225 401.716, 112.550 407.995, 117.500 411.253 C 122.450 414.510, 132.350 420.024, 139.500 423.506 C 146.650 426.988, 156.775 431.211, 162 432.890 C 167.225 434.570, 176.225 436.947, 182 438.172 C 191.017 440.085, 195.607 440.402, 214.500 440.419 C 233.714 440.435, 237.877 440.145, 247.379 438.130 C 253.363 436.861, 263.038 434.242, 268.879 432.310 C 274.721 430.379, 284.125 426.619, 289.778 423.956 C 295.431 421.292, 304.431 416.245, 309.778 412.740 C 315.125 409.236, 323.601 402.926, 328.613 398.720 C 333.625 394.513, 341.233 387.343, 345.521 382.786 C 349.808 378.229, 355.679 371.575, 358.567 368 C 361.455 364.425, 366.342 357.685, 369.427 353.023 C 372.511 348.360, 377.925 338.685, 381.457 331.523 C 384.989 324.360, 389.485 313.586, 391.450 307.579 C 393.414 301.572, 395.914 292.797, 397.006 288.079 C 398.097 283.361, 399.667 274.584, 400.495 268.576 C 401.336 262.469, 402 250.324, 402 241.034 C 402 231.895, 401.315 219.036, 400.477 212.458 C 399.640 205.881, 398.043 196.450, 396.929 191.500 C 395.815 186.550, 393.758 178.900, 392.358 174.500 C 390.957 170.100, 388.682 163.800, 387.300 160.500 C 385.919 157.200, 382.766 150.450, 380.293 145.500 C 377.820 140.550, 371.932 130.650, 367.208 123.500 C 360.293 113.033, 355.783 107.659, 344.060 95.916 C 336.052 87.895, 326.125 78.968, 322 76.078 C 317.875 73.188, 310.900 68.700, 306.500 66.105 C 302.100 63.511, 294.225 59.528, 289 57.256 C 283.775 54.984, 275.900 51.938, 271.500 50.488 C 267.100 49.039, 258.100 46.746, 251.500 45.395 C 241.787 43.405, 235.688 42.861, 219.500 42.537 C 208.500 42.317, 196.125 42.500, 192 42.944 M 199.500 55.614 C 197.850 55.860, 192.103 56.734, 186.728 57.555 C 181.353 58.377, 171.688 60.645, 165.250 62.597 C 158.812 64.548, 148.527 68.530, 142.395 71.445 C 136.263 74.359, 127.974 78.861, 123.974 81.448 C 119.975 84.035, 113.507 88.689, 109.602 91.789 C 105.696 94.890, 100.103 99.678, 97.174 102.430 C 94.245 105.182, 88.798 111.049, 85.070 115.467 C 81.343 119.885, 76.732 125.750, 74.824 128.500 C 72.917 131.250, 69.106 137.325, 66.357 142 C 63.607 146.675, 60.105 153.160, 58.574 156.411 C 57.042 159.661, 54.655 165.286, 53.267 168.911 C 51.880 172.535, 49.894 178.200, 48.853 181.500 C 47.813 184.800, 46.035 191.550, 44.904 196.500 C 43.772 201.450, 42.211 211.125, 41.433 218 C 40.656 224.875, 40.015 235.013, 40.010 240.530 C 40.004 246.046, 40.678 256.036, 41.506 262.728 C 42.335 269.421, 43.953 278.857, 45.102 283.698 C 46.251 288.539, 48.767 297.225, 50.693 303 C 52.620 308.775, 56.479 318.225, 59.271 324 C 62.062 329.775, 66.154 337.425, 68.364 341 C 70.575 344.575, 75.538 351.717, 79.394 356.870 C 83.250 362.024, 90.460 370.349, 95.417 375.370 L 104.429 384.500 105.269 376 C 105.731 371.325, 107.011 363.675, 108.114 359 C 109.217 354.325, 111.739 346.675, 113.719 342 C 115.698 337.325, 119.264 330.459, 121.644 326.742 C 124.023 323.026, 129.638 316.163, 134.123 311.492 C 138.607 306.822, 141.821 303, 141.266 303 C 140.711 303, 136.711 300.708, 132.378 297.906 C 128.045 295.104, 121.646 290.041, 118.157 286.656 C 114.669 283.270, 109.719 277.350, 107.157 273.500 C 104.596 269.650, 101.728 264.925, 100.783 263 C 99.839 261.075, 98.204 257.250, 97.149 254.500 C 96.094 251.750, 94.648 245.371, 93.935 240.325 C 92.998 233.690, 92.917 229.615, 93.643 225.609 L 94.647 220.070 90.421 215.923 C 88.097 213.642, 85.058 209.685, 83.667 207.130 C 82.277 204.575, 80.583 199.466, 79.903 195.777 C 78.926 190.473, 78.923 187.637, 79.891 182.223 C 80.567 178.439, 82.423 173.084, 84.041 170.252 C 85.650 167.434, 88.662 163.461, 90.734 161.423 C 92.805 159.386, 96.828 156.640, 99.673 155.321 C 102.518 154.003, 107.055 152.662, 109.756 152.343 C 112.954 151.964, 116.640 152.335, 120.329 153.407 C 123.443 154.313, 127.515 156.391, 129.378 158.027 C 131.240 159.662, 133.310 161, 133.978 161 C 134.645 161, 136.386 160.157, 137.846 159.127 C 139.306 158.096, 143.401 155.795, 146.947 154.013 C 150.493 152.230, 155.218 150.106, 157.447 149.292 C 159.676 148.478, 164.425 146.934, 168 145.860 C 171.575 144.787, 178.325 143.262, 183 142.472 C 187.675 141.681, 194.075 141.027, 197.222 141.017 L 202.944 141 204.576 135.250 C 205.474 132.088, 208.371 122.300, 211.015 113.500 C 213.658 104.700, 216.554 94.895, 217.450 91.711 C 218.671 87.370, 219.705 85.636, 221.582 84.781 C 223.717 83.808, 227.067 84.545, 244.293 89.775 L 264.500 95.909 266.767 93.026 C 268.013 91.440, 270.695 89.115, 272.727 87.860 C 275.645 86.056, 277.896 85.574, 283.460 85.560 C 288.274 85.547, 291.517 86.091, 293.718 87.280 C 295.488 88.236, 298.121 90.252, 299.570 91.759 C 301.018 93.267, 303.278 96.750, 304.592 99.500 C 306.036 102.522, 306.984 106.329, 306.990 109.124 C 306.996 111.668, 306.346 115.603, 305.546 117.870 C 304.746 120.137, 302.862 123.533, 301.359 125.417 C 299.856 127.301, 296.958 129.780, 294.919 130.926 C 292.879 132.072, 289.246 133.279, 286.845 133.608 C 284.444 133.937, 280.641 133.711, 278.394 133.106 C 276.147 132.501, 272.499 130.695, 270.287 129.093 C 267.970 127.414, 265.305 124.196, 264 121.499 C 262.753 118.925, 261.510 114.835, 261.237 112.409 C 260.964 109.984, 260.580 108, 260.385 108 C 260.190 108, 256.086 106.836, 251.265 105.413 C 246.444 103.991, 239.405 101.948, 235.622 100.874 C 231.839 99.801, 228.654 99.052, 228.544 99.211 C 228.433 99.370, 226.174 106.700, 223.523 115.500 C 220.872 124.300, 218.150 133.583, 217.474 136.129 L 216.245 140.759 223.856 142.061 C 228.042 142.777, 234.593 144.354, 238.414 145.565 L 245.361 147.768 250.931 145.705 C 255.296 144.087, 258.769 143.652, 267 143.691 C 274.701 143.727, 279.339 144.301, 284.398 145.842 C 288.191 146.998, 294.693 149.869, 298.846 152.222 C 303.270 154.729, 309.316 159.423, 313.448 163.561 C 317.327 167.444, 323.048 174.194, 326.162 178.561 C 329.277 182.927, 333.706 189.993, 336.006 194.263 C 338.306 198.532, 341.288 205.057, 342.634 208.763 C 343.979 212.468, 346.063 219.100, 347.264 223.500 C 349.137 230.363, 349.450 234.129, 349.466 250 C 349.483 266.504, 349.233 269.353, 347.147 276.404 C 345.861 280.752, 343.312 287.594, 341.481 291.610 C 339.651 295.626, 336.150 301.969, 333.700 305.706 C 331.251 309.443, 326.604 315.543, 323.373 319.262 C 320.143 322.981, 313.606 329.281, 308.847 333.262 C 304.087 337.243, 295.946 343.123, 290.754 346.328 L 281.316 352.156 282.832 359.828 C 283.890 365.174, 284.370 374.094, 284.417 389.250 C 284.454 401.212, 284.732 411, 285.034 411 C 285.336 411, 289.615 408.694, 294.542 405.875 C 299.469 403.056, 306.875 398.443, 311 395.625 C 315.125 392.806, 324.605 384.425, 332.067 377 C 340.218 368.889, 348.458 359.508, 352.708 353.500 C 356.598 348, 361.888 339.675, 364.462 335 C 367.036 330.325, 370.730 322.900, 372.672 318.500 C 374.613 314.100, 377.259 307.575, 378.552 304 C 379.845 300.425, 382.016 293, 383.377 287.500 C 384.738 282, 386.432 274.800, 387.142 271.500 C 388 267.516, 388.439 257.100, 388.450 240.500 C 388.465 218.331, 388.206 214.198, 386.159 204 C 384.889 197.675, 382.947 189.203, 381.843 185.172 C 380.739 181.142, 378.275 173.972, 376.367 169.240 C 374.459 164.507, 371.305 157.454, 369.359 153.567 C 367.413 149.680, 363.787 143.074, 361.301 138.887 C 358.816 134.700, 354.494 128.175, 351.698 124.387 C 348.902 120.599, 340.963 111.855, 334.057 104.956 C 327.151 98.057, 318.575 90.337, 315 87.801 C 311.425 85.265, 304.497 80.880, 299.604 78.056 C 294.711 75.232, 287.511 71.544, 283.604 69.859 C 279.697 68.175, 274.025 65.909, 271 64.824 C 267.975 63.739, 262.125 61.947, 258 60.842 C 253.875 59.736, 246.675 58.171, 242 57.363 C 237.325 56.555, 226.525 55.730, 218 55.530 C 209.475 55.329, 201.150 55.367, 199.500 55.614 M 189.500 154.973 C 186.200 155.441, 179.795 156.747, 175.266 157.874 C 170.737 159.001, 163.987 161.131, 160.266 162.607 C 156.545 164.082, 149.900 167.322, 145.500 169.806 C 139.728 173.064, 134.701 177.142, 127.450 184.448 C 118.883 193.079, 116.708 195.970, 112.709 204.037 C 109.674 210.157, 107.422 216.473, 106.332 221.918 C 104.900 229.077, 104.823 231.545, 105.821 238.418 C 106.465 242.863, 107.935 248.975, 109.087 252 C 110.238 255.025, 113.125 260.425, 115.501 264 C 117.877 267.575, 122.908 273.479, 126.679 277.120 C 130.451 280.762, 136.679 285.742, 140.519 288.188 C 144.358 290.634, 151.325 294.292, 156 296.317 C 160.675 298.341, 167.425 300.854, 171 301.900 C 174.575 302.947, 181.511 304.572, 186.414 305.513 C 193.470 306.867, 198.785 307.118, 211.914 306.719 C 225.330 306.311, 230.368 305.727, 238.273 303.663 C 243.649 302.259, 252.004 299.365, 256.840 297.231 C 261.676 295.097, 268.175 291.663, 271.282 289.601 C 274.390 287.538, 279.344 283.439, 282.292 280.491 C 285.240 277.543, 289.048 272.511, 290.755 269.308 C 292.462 266.106, 294.790 260.123, 295.929 256.013 C 297.068 251.903, 297.993 246.056, 297.984 243.020 C 297.976 239.984, 297.095 233.450, 296.028 228.500 C 294.960 223.550, 293.132 217.025, 291.966 214 C 290.799 210.975, 288.491 205.800, 286.837 202.500 C 285.182 199.200, 282.511 194.426, 280.901 191.892 L 277.974 187.284 267.815 186.584 C 262.228 186.200, 254.247 185.184, 250.078 184.327 C 245.910 183.470, 241.150 182.094, 239.500 181.268 C 237.850 180.442, 235.445 178.806, 234.155 177.633 C 232.865 176.460, 231.178 174.285, 230.405 172.800 C 229.632 171.314, 229 168.934, 229 167.510 C 229 166.086, 229.873 163.209, 230.940 161.118 L 232.880 157.316 227.690 156.064 C 224.835 155.375, 216.425 154.657, 209 154.467 C 201.575 154.277, 192.800 154.505, 189.500 154.973 M 256.056 156.595 C 253.062 157.400, 249.094 159.216, 247.238 160.632 C 245.382 162.048, 243.357 164.317, 242.738 165.675 C 241.844 167.639, 241.909 168.333, 243.057 169.072 C 243.851 169.583, 246.075 170.433, 248 170.962 C 249.925 171.491, 256.811 172.616, 263.301 173.462 C 269.792 174.308, 276.847 175, 278.980 175 C 281.214 175, 283.541 175.684, 284.470 176.613 C 285.357 177.500, 287.709 180.763, 289.696 183.863 C 291.683 186.963, 295.230 193.325, 297.578 198 C 299.927 202.675, 302.800 209.200, 303.964 212.500 C 305.127 215.800, 306.736 221.875, 307.539 226 C 308.342 230.125, 309 237.408, 309 242.185 C 309 246.961, 308.312 254.161, 307.470 258.185 C 306.629 262.208, 304.162 269.100, 301.988 273.500 C 299.813 277.900, 295.965 283.864, 293.436 286.754 C 290.907 289.643, 286.172 294.059, 282.912 296.567 C 279.653 299.075, 273.277 303.096, 268.743 305.503 C 264.209 307.910, 257.350 310.989, 253.500 312.345 C 249.650 313.701, 242.225 315.845, 237 317.110 C 228.756 319.105, 224.923 319.408, 208 319.408 C 191.155 319.408, 187.206 319.098, 179 317.131 C 173.775 315.878, 166.019 313.726, 161.763 312.349 L 154.027 309.845 151.166 311.882 C 149.593 313.002, 145.557 316.857, 142.198 320.448 C 138.839 324.038, 134.339 329.569, 132.198 332.738 C 130.058 335.907, 126.893 341.477, 125.166 345.115 C 123.439 348.754, 120.936 356.404, 119.604 362.115 C 118.272 367.827, 116.921 377.325, 116.602 383.223 L 116.022 393.945 122.858 398.407 C 126.617 400.861, 132.575 404.454, 136.097 406.391 L 142.500 409.913 142.196 396.503 C 141.963 386.199, 142.377 380.433, 143.982 371.602 C 145.130 365.281, 146.905 357.683, 147.925 354.717 C 148.945 351.752, 150.509 347.916, 151.400 346.192 C 152.292 344.469, 153.933 342.571, 155.048 341.974 C 156.163 341.377, 157.886 341.147, 158.878 341.461 C 159.869 341.776, 161.245 343.089, 161.936 344.380 C 163.010 346.387, 162.805 347.797, 160.524 354.113 C 159.057 358.176, 156.921 365.775, 155.776 371 C 154.261 377.918, 153.671 384.305, 153.606 394.500 C 153.557 402.200, 153.864 410.154, 154.289 412.174 C 155.010 415.601, 155.515 416.018, 161.781 418.357 C 165.477 419.737, 171.875 421.782, 176 422.902 C 180.125 424.022, 189.125 425.678, 196 426.581 C 204.751 427.731, 212.099 428.051, 220.500 427.648 C 227.100 427.331, 236.100 426.411, 240.500 425.603 C 244.900 424.796, 251.200 423.431, 254.500 422.570 C 257.800 421.709, 262.750 420.151, 265.500 419.107 L 270.500 417.210 271.675 408.855 C 272.321 404.260, 272.883 394.367, 272.925 386.871 C 272.976 377.612, 272.388 369.756, 271.090 362.371 C 270.040 356.392, 268.240 348.021, 267.090 343.768 C 265.941 339.516, 265 335.198, 265 334.173 C 265 333.149, 265.823 331.565, 266.829 330.655 C 267.835 329.745, 269.565 329, 270.674 329 C 271.783 329, 273.379 329.787, 274.222 330.750 C 275.065 331.712, 276.344 334.172, 277.065 336.215 L 278.377 339.930 281.938 337.803 C 283.897 336.633, 289.050 333.161, 293.389 330.088 C 297.727 327.015, 304.756 321.062, 309.009 316.860 C 313.262 312.659, 318.775 306.359, 321.260 302.860 C 323.746 299.362, 327.418 293.270, 329.421 289.323 C 331.423 285.375, 334.228 278.400, 335.653 273.823 C 337.974 266.370, 338.244 263.879, 338.240 250 C 338.235 236.471, 337.913 233.356, 335.707 225.500 C 334.317 220.550, 332.240 214.036, 331.093 211.024 C 329.946 208.012, 326.914 201.937, 324.356 197.524 C 321.798 193.111, 317.806 187.025, 315.485 184 C 313.163 180.975, 307.939 175.350, 303.875 171.500 C 299.812 167.650, 293.790 163.089, 290.493 161.364 C 287.197 159.639, 281.546 157.501, 277.936 156.614 C 274.326 155.726, 269.151 155.030, 266.436 155.066 C 263.721 155.102, 259.050 155.790, 256.056 156.595 M 104.500 166.569 C 102.850 167.426, 100.221 169.336, 98.658 170.813 C 97.096 172.291, 94.859 175.300, 93.688 177.500 C 92.110 180.465, 91.553 183.311, 91.536 188.500 C 91.517 194.378, 91.979 196.341, 94.416 200.750 C 96.012 203.637, 97.606 206, 97.958 206 C 98.310 206, 99.127 204.537, 99.774 202.750 C 100.420 200.962, 103.262 195.741, 106.089 191.147 C 108.916 186.553, 114.141 179.708, 117.700 175.935 L 124.172 169.075 120.836 167.041 C 118.654 165.711, 115.771 165.008, 112.500 165.010 C 109.750 165.011, 106.150 165.713, 104.500 166.569 M 170 191.594 C 168.075 192.428, 165.206 194.323, 163.624 195.805 C 162.041 197.287, 159.683 200.750, 158.383 203.500 C 157.083 206.250, 156.015 210.332, 156.010 212.571 C 156.004 215.046, 157.077 218.766, 158.750 222.064 C 160.505 225.525, 162.997 228.525, 165.637 230.354 C 168.134 232.084, 171.607 233.427, 174.399 233.741 C 177.452 234.086, 180.527 233.689, 183.448 232.573 C 185.882 231.644, 189.447 229.141, 191.370 227.012 C 193.293 224.883, 195.344 221.422, 195.928 219.321 C 196.511 217.219, 196.989 214.150, 196.989 212.500 C 196.989 210.850, 196.490 207.700, 195.879 205.500 C 195.269 203.300, 193.513 199.913, 191.978 197.974 C 190.443 196.034, 187.183 193.447, 184.734 192.224 C 182.285 191.001, 178.755 190.018, 176.890 190.039 C 175.026 190.061, 171.925 190.760, 170 191.594 M 248.500 190.919 C 246.850 191.323, 244.600 192.144, 243.500 192.744 C 242.400 193.345, 240.081 195.335, 238.346 197.168 C 236.611 199.001, 234.474 202.653, 233.596 205.285 C 232.718 207.917, 232 211.162, 232 212.497 C 232 213.833, 232.899 217.328, 233.998 220.264 C 235.096 223.200, 237.459 227.015, 239.248 228.740 C 241.036 230.466, 243.767 232.355, 245.315 232.939 C 246.863 233.522, 249.984 234, 252.249 234 C 254.515 234, 258.274 233.077, 260.604 231.950 C 262.933 230.822, 265.926 228.459, 267.253 226.700 C 268.581 224.940, 270.192 221.970, 270.834 220.101 C 271.475 218.231, 271.997 215.081, 271.994 213.101 C 271.991 211.120, 271.543 207.896, 270.998 205.935 C 270.454 203.974, 268.386 200.474, 266.404 198.158 C 264.421 195.842, 261.607 193.339, 260.150 192.594 C 258.692 191.850, 256.150 191.003, 254.500 190.713 C 252.850 190.423, 250.150 190.515, 248.500 190.919 M 172.655 253.829 C 171.745 254.835, 171 256.652, 171 257.867 C 171 259.083, 172.688 261.849, 174.750 264.014 C 176.813 266.179, 181.195 269.550, 184.489 271.504 C 187.783 273.459, 193.633 276.042, 197.489 277.245 C 202.883 278.928, 207.038 279.438, 215.500 279.456 C 223.642 279.473, 227.929 278.995, 232 277.616 C 235.025 276.592, 240.446 274.226, 244.047 272.360 C 247.647 270.493, 252.266 267.342, 254.309 265.357 C 256.353 263.372, 258.283 260.721, 258.598 259.467 C 258.912 258.213, 258.669 256.250, 258.056 255.105 C 257.444 253.960, 255.813 252.740, 254.433 252.394 C 252.450 251.896, 250.729 252.701, 246.212 256.238 C 243.071 258.699, 238.980 261.493, 237.122 262.448 C 235.264 263.403, 231.664 264.780, 229.122 265.509 C 226.580 266.237, 222.249 267.123, 219.497 267.476 C 216.355 267.880, 211.635 267.529, 206.807 266.532 C 202.578 265.658, 196.729 263.845, 193.809 262.502 C 190.889 261.159, 186.314 258.247, 183.641 256.030 C 180.969 253.814, 177.776 252, 176.546 252 C 175.316 252, 173.565 252.823, 172.655 253.829" stroke="none" fill="#fafafa" fill-rule="evenodd"/></svg>